<svg width="204" height="204" viewBox="0 0 204 204" fill="none" xmlns="http://www.w3.org/2000/svg">
<g clip-path="url(#clip0_1_2)">
<rect width="204" height="204" fill="white"/>
<path d="M121.062 117.203V164.135C121.062 167.517 123.662 170.427 127.04 170.587C130.647 170.757 133.625 167.882 133.625 164.312V145.469C133.625 142 136.437 139.188 139.906 139.188C143.375 139.188 146.188 142 146.188 145.469V148.432C146.188 151.814 148.787 154.724 152.165 154.884C155.772 155.054 158.75 152.179 158.75 148.609V92.0781L121.062 117.203Z" fill="white"/>
<path d="M91.6984 129.496L84.0353 137.159L29.2287 196.731C27.0773 199.069 23.4122 199.146 21.1655 196.899L13.9095 189.643C11.7275 187.461 11.7275 183.923 13.9095 181.741L78.9267 116.724L91.6984 129.496Z" fill="#E6C067"/>
<path d="M143.573 113.382L119.796 137.159C111.002 128.365 97.0799 127.375 87.1304 134.837L84.0349 137.159L71.2628 124.387L191.319 4.33063C189.677 45.3904 172.63 84.3251 143.573 113.382Z" fill="#98A0C9"/>
<path d="M35.5021 160.148L49.7648 174.411L37.5231 187.713L22.7299 172.92L35.5021 160.148Z" fill="#4D5166"/>
<path d="M119.797 137.159L143.574 113.382C160.095 96.8609 172.727 77.1445 180.858 55.6622L106.323 130.198C111.28 131.04 116.013 133.375 119.797 137.159Z" fill="#4D5166"/>
<path d="M133.625 192.578C133.625 196.047 130.813 198.859 127.344 198.859C123.875 198.859 121.062 196.047 121.062 192.578C121.062 189.109 127.344 180.016 127.344 180.016C127.344 180.016 133.625 189.109 133.625 192.578Z" fill="white"/>
<path d="M161.891 180.016C161.891 183.485 159.079 186.297 155.609 186.297C152.14 186.297 149.328 183.485 149.328 180.016C149.328 176.546 155.609 167.453 155.609 167.453C155.609 167.453 161.891 176.546 161.891 180.016Z" fill="white"/>
</g>
<defs>
<clipPath id="clip0_1_2">
<rect width="204" height="204" fill="white"/>
</clipPath>
</defs>
</svg>
