<svg width="201" height="201" viewBox="0 0 201 201" fill="none" xmlns="http://www.w3.org/2000/svg">
<rect width="201" height="201" fill="white"/>
<path d="M159.778 24.6578V24.6158H158.418H157.057V24.6578C156.303 24.7066 155.557 24.7974 154.827 24.9247C152.921 15.326 144.434 8.06977 134.285 8.06977C130.416 8.06977 126.789 9.12404 123.674 10.9601C120.023 7.86638 115.303 6 110.155 6C99.9352 6 91.4033 13.3592 89.5731 23.055C88.0972 22.725 86.5646 22.5493 84.992 22.5493C73.4453 22.5493 64.0496 31.9447 64.0496 43.4918V79.7141C63.301 78.6048 62.5678 77.5871 61.8436 76.6509C59.7986 74.0393 57.9717 72.188 55.8716 70.5882C54.3445 69.4339 52.8174 68.5309 51.1695 67.8067C48.9665 66.8373 46.6612 66.2493 44.3161 66.0584C43.7494 66.0101 43.1614 65.9857 42.5796 65.9857C36.735 65.9857 31.1149 68.4579 27.1577 72.7665C22.7494 77.5749 20.8468 84.0193 21.9436 90.4487C22.4522 93.2936 23.6431 97.3446 25.6036 102.941C28.9517 112.497 34.1326 125.253 41.0041 140.866C48.082 156.909 58.5808 170.834 71.3726 181.139C82.3043 189.949 97.899 195 114.163 195C143.044 195 166.465 179.472 175.285 154.478C177.936 146.901 179.342 139.299 179.36 132.466V130.361V128.291V45.5578C179.36 34.4689 170.695 25.3607 159.778 24.6578ZM114.163 182.589C100.871 182.589 87.9127 178.53 79.1592 171.476C68.0396 162.517 58.6225 150.058 52.3633 135.866C44.2828 117.505 39.8074 105.946 37.3168 98.8411C34.8262 91.727 34.3083 89.091 34.1776 88.3638C33.7324 85.7525 34.5113 83.1102 36.3016 81.1589C37.9318 79.3833 40.1983 78.3959 42.5793 78.3959L43.3005 78.4258C44.3699 78.5136 45.3426 78.8015 46.1699 79.1651C47.003 79.5317 47.7059 79.9714 48.3515 80.459C49.6361 81.4376 50.7387 82.5978 52.0267 84.243C54.5686 87.5306 57.8499 92.8573 62.6856 102.874C64.7639 107.194 66.8181 110.194 68.5727 112.127C70.3327 114.069 71.7447 114.923 72.6266 115.278C73.2235 115.514 73.5959 115.557 73.8779 115.56C74.1932 115.557 74.4176 115.499 74.6993 115.375C74.9721 115.248 75.287 115.026 75.5749 114.711C76.181 114.096 76.4963 113.102 76.4597 112.781V101.404V43.4914C76.4597 38.7797 80.2803 34.9594 84.9917 34.9594C89.703 34.9594 93.524 38.7801 93.524 43.4914V92.8721H101.623V26.9425C101.623 22.2307 105.443 18.4105 110.154 18.4105C114.866 18.4105 118.687 22.2311 118.687 26.9425V92.8724H125.753V29.0119C125.753 24.3001 129.573 20.4799 134.285 20.4799C138.996 20.4799 142.817 24.3005 142.817 29.0119V92.8724H149.885V45.5578C149.885 40.8461 153.706 37.0255 158.418 37.0255C163.129 37.0255 166.95 40.8461 166.95 45.5578V128.291C166.95 128.297 166.95 128.858 166.95 130.361C166.95 130.915 166.95 131.593 166.95 132.43C166.935 137.726 165.853 143.853 163.58 150.349C155.548 173.112 134.47 182.589 114.163 182.589Z" fill="black"/>
</svg>
