<svg width="201" height="201" viewBox="0 0 201 201" fill="none" xmlns="http://www.w3.org/2000/svg">
<g clip-path="url(#clip0_1_2)">
<rect width="201" height="201" fill="white"/>
<path d="M51.445 104.31C69.811 104.31 87.4273 111.594 100.43 124.565C113.433 137.536 120.76 155.134 120.805 173.5" stroke="#020202" stroke-width="10" stroke-miterlimit="10"/>
<path d="M190.25 53.395C190.25 42.1753 181.174 33.08 169.977 33.08C158.781 33.08 149.705 42.1753 149.705 53.395V77.705C149.705 88.9247 158.781 98.02 169.977 98.02C181.174 98.02 190.25 88.9247 190.25 77.705V53.395Z" stroke="#020202" stroke-width="10" stroke-miterlimit="10"/>
<path d="M149.62 45.235C149.62 34.0153 140.544 24.92 129.348 24.92C118.151 24.92 109.075 34.0153 109.075 45.235V77.62C109.075 88.8397 118.151 97.935 129.348 97.935C140.544 97.935 149.62 88.8397 149.62 77.62V45.235Z" stroke="#020202" stroke-width="10" stroke-miterlimit="10"/>
<path d="M97.26 96.065C100.865 94.5272 103.943 91.971 106.117 88.7099C108.291 85.4488 109.467 81.6243 109.5 77.705V45.235C109.68 42.4624 109.289 39.6824 108.351 37.0669C107.414 34.4514 105.95 32.056 104.049 30.0289C102.149 28.0017 99.8537 26.3858 97.3042 25.2812C94.7548 24.1766 92.0059 23.6066 89.2275 23.6066C86.4491 23.6066 83.7002 24.1766 81.1508 25.2812C78.6013 26.3858 76.3056 28.0017 74.4055 30.0289C72.5055 32.056 71.0414 34.4514 70.1039 37.0669C69.1664 39.6824 68.7754 42.4624 68.955 45.235V64.615" stroke="#020202" stroke-width="10" stroke-miterlimit="10"/>
<path d="M27.985 78.215V45.235C27.8054 42.4624 28.1964 39.6824 29.1339 37.0669C30.0714 34.4514 31.5355 32.056 33.4355 30.0289C35.3356 28.0017 37.6313 26.3858 40.1808 25.2812C42.7302 24.1766 45.4791 23.6066 48.2575 23.6066C51.0359 23.6066 53.7848 24.1766 56.3342 25.2812C58.8837 26.3858 61.1794 28.0017 63.0795 30.0289C64.9795 32.056 66.4436 34.4514 67.3811 37.0669C68.3186 39.6824 68.7096 42.4624 68.53 45.235V64.615" stroke="#020202" stroke-width="10" stroke-miterlimit="10"/>
<path d="M52.295 211.58V195.345L45.92 189.905C24.075 167.975 11.92 146.385 11.92 115.36C11.909 101.934 17.1929 89.0449 26.625 79.49C36.1523 69.9956 49.0446 64.6493 62.495 64.615H81.195C86.4476 64.615 91.4851 66.7016 95.1993 70.4157C98.9134 74.1299 101 79.1674 101 84.42C101.011 87.028 100.507 89.6125 99.5169 92.0251C98.5266 94.4378 97.0696 96.6312 95.2294 98.4792C93.3892 100.327 91.2021 101.794 88.7937 102.794C86.3853 103.795 83.803 104.31 81.195 104.31H51.445" stroke="#020202" stroke-width="10" stroke-miterlimit="10"/>
<path d="M149.705 211.58V195.345L156.08 189.905C177.925 167.975 190.08 146.385 190.08 115.36V74.56" stroke="#020202" stroke-width="10" stroke-miterlimit="10"/>
</g>
<defs>
<clipPath id="clip0_1_2">
<rect width="201" height="201" fill="white"/>
</clipPath>
</defs>
</svg>
