<svg width="201" height="201" viewBox="0 0 201 201" fill="none" xmlns="http://www.w3.org/2000/svg">
<g clip-path="url(#clip0_1_19)">
<rect width="201" height="201" fill="white"/>
<rect x="-11" width="223" height="223" stroke="black"/>
<path d="M56.6433 212.222L51.8117 207.39C32.4173 187.996 21.5213 161.692 21.5208 134.265C21.4899 128.314 22.6402 122.417 24.9051 116.914C27.1699 111.411 30.5043 106.413 34.715 102.208C38.9018 98.0773 43.8659 94.8171 49.3203 92.6162C54.7747 90.4153 60.6112 89.3174 66.4925 89.3858H82.9388C87.5802 89.3858 92.033 91.2232 95.3237 94.4965C98.6144 97.7698 100.475 102.213 100.5 106.854C100.5 111.512 98.6498 115.978 95.3564 119.272C92.0631 122.565 87.5963 124.415 82.9388 124.415H56.6433" stroke="#020202" stroke-width="10" stroke-miterlimit="10"/>
<path d="M56.6433 124.415L59.8025 125.716C71.7937 130.556 82.07 138.86 89.3191 149.568C96.5681 160.277 100.461 172.902 100.5 185.833" stroke="#020202" stroke-width="10" stroke-miterlimit="10"/>
<path d="M149.188 207.39C168.583 187.996 179.479 161.692 179.479 134.265" stroke="#020202" stroke-width="10" stroke-miterlimit="10"/>
<path d="M44.75 89.3858L33.9717 31.4058C33.1862 26.8257 34.2383 22.1205 36.8997 18.3111C39.5611 14.5016 43.6171 11.8952 48.1879 11.0571C49.208 10.9652 50.2342 10.9652 51.2542 11.0571C55.3518 11.0513 59.3224 12.4785 62.4786 15.0917C65.6348 17.7049 67.7779 21.3395 68.5367 25.3663L79.9654 90.4079" stroke="#020202" stroke-width="10" stroke-miterlimit="10"/>
<path d="M85.3546 93.3812L97.3409 25.3662C98.0414 21.2883 100.159 17.5887 103.321 14.9199C106.483 12.251 110.486 10.7843 114.623 10.7783C115.643 10.6865 116.67 10.6865 117.69 10.7783C122.26 11.6164 126.317 14.2229 128.978 18.0323C131.639 21.8418 132.691 26.5469 131.906 31.1271L121.499 90.2221" stroke="#020202" stroke-width="10" stroke-miterlimit="10"/>
<path d="M144.357 106.947C144.357 97.2483 136.494 89.3858 126.795 89.3858C117.097 89.3858 109.234 97.2483 109.234 106.947V133.243C109.234 142.941 117.097 150.804 126.795 150.804C136.494 150.804 144.357 142.941 144.357 133.243V106.947Z" stroke="#020202" stroke-width="10" stroke-miterlimit="10"/>
<path d="M179.479 115.681C179.479 105.982 171.617 98.12 161.918 98.12C152.219 98.12 144.357 105.982 144.357 115.681V133.242C144.357 142.941 152.219 150.804 161.918 150.804C171.617 150.804 179.479 142.941 179.479 133.242V115.681Z" stroke="#020202" stroke-width="10" stroke-miterlimit="10"/>
</g>
<defs>
<clipPath id="clip0_1_19">
<rect width="201" height="201" fill="white"/>
</clipPath>
</defs>
</svg>
